<?xml version="1.0" encoding="UTF-8"?><svg xmlns="http://www.w3.org/2000/svg" xmlns:xlink="http://www.w3.org/1999/xlink" width="109pt" height="50pt" viewBox="0 0 109 50" version="1.1"><g id="surface0"><path style="stroke: none; fill-rule: evenodd; fill: rgb(0%,0%,0%); opacity: 0;" d="M86.25 4.5L101.25 4.5L101.25 15L86.25 15ZM86.25 4.5"/><path style="fill: none; stroke-width: 0.75; stroke-linecap: butt; stroke-linejoin: miter; stroke: rgb(0%,0%,0%); opacity: 0;stroke-miterlimit: 10;" d="M86.25 4.5L101.25 4.5L101.25 15L86.25 15ZM86.25 4.5" transform="matrix(1,0,0,1,0,0)"/><path style="stroke: none; fill-rule: evenodd; fill: rgb(0%,0%,0%); opacity: 0;" d="M4.5 4.5L20.25 4.5L20.25 15L4.5 15ZM4.5 4.5"/><path style="fill: none; stroke-width: 0.75; stroke-linecap: butt; stroke-linejoin: miter; stroke: rgb(0%,0%,0%); opacity: 0;stroke-miterlimit: 10;" d="M4.5 4.5L20.25 4.5L20.25 15L4.5 15ZM4.5 4.5" transform="matrix(1,0,0,1,0,0)"/><path style="stroke: none; fill-rule: evenodd; fill: rgb(0%,0%,0%); opacity: 0;" d="M4.5 33.75L20.25 33.75L20.25 44.25L4.5 44.25ZM4.5 33.75"/><path style="fill: none; stroke-width: 0.75; stroke-linecap: butt; stroke-linejoin: miter; stroke: rgb(0%,0%,0%); opacity: 0;stroke-miterlimit: 10;" d="M4.5 33.75L20.25 33.75L20.25 44.25L4.5 44.25ZM4.5 33.75" transform="matrix(1,0,0,1,0,0)"/><path style="fill: none; stroke-width: 0.595276; stroke-linecap: butt; stroke-linejoin: round; stroke: rgb(0%,0%,0%); opacity: 1;stroke-miterlimit: 10;" d="M28.31282 18L21 13.779419" transform="matrix(1,0,0,1,0,0)"/><path style="fill: none; stroke-width: 0.595276; stroke-linecap: butt; stroke-linejoin: round; stroke: rgb(0%,0%,0%); opacity: 1;stroke-miterlimit: 10;" d="M28.31282 32.379211L21 36.599808" transform="matrix(1,0,0,1,0,0)"/><path style="fill: none; stroke-width: 0.595276; stroke-linecap: round; stroke-linejoin: round; stroke: rgb(0%,0%,0%); opacity: 1;stroke-miterlimit: 10;" d="M28.31282 32.379211L40.781403 39.582977" transform="matrix(1,0,0,1,0,0)"/><path style="fill: none; stroke-width: 0.595276; stroke-linecap: butt; stroke-linejoin: round; stroke: rgb(0%,0%,0%); opacity: 1;stroke-miterlimit: 10;" d="M30.325409 19.797409L30.325409 30.581818" transform="matrix(1,0,0,1,0,0)"/><path style="fill: none; stroke-width: 0.595276; stroke-linecap: round; stroke-linejoin: round; stroke: rgb(0%,0%,0%); opacity: 1;stroke-miterlimit: 10;" d="M28.31282 18L28.31282 32.379211" transform="matrix(1,0,0,1,0,0)"/><path style="fill: none; stroke-width: 0.595276; stroke-linecap: round; stroke-linejoin: round; stroke: rgb(0%,0%,0%); opacity: 1;stroke-miterlimit: 10;" d="M53.25 18L65.721848 10.80188" transform="matrix(1,0,0,1,0,0)"/><path style="fill: none; stroke-width: 0.595276; stroke-linecap: butt; stroke-linejoin: round; stroke: rgb(0%,0%,0%); opacity: 1;stroke-miterlimit: 10;" d="M41.33316 13.439362L50.684601 18.842194" transform="matrix(1,0,0,1,0,0)"/><path style="fill: none; stroke-width: 0.595276; stroke-linecap: round; stroke-linejoin: round; stroke: rgb(0%,0%,0%); opacity: 1;stroke-miterlimit: 10;" d="M40.781403 10.796234L53.25 18" transform="matrix(1,0,0,1,0,0)"/><path style="fill: none; stroke-width: 0.595276; stroke-linecap: round; stroke-linejoin: round; stroke: rgb(0%,0%,0%); opacity: 1;stroke-miterlimit: 10;" d="M65.721848 10.80188L78.191528 18.003769" transform="matrix(1,0,0,1,0,0)"/><path style="fill: none; stroke-width: 0.595276; stroke-linecap: butt; stroke-linejoin: round; stroke: rgb(0%,0%,0%); opacity: 1;stroke-miterlimit: 10;" d="M50.684601 31.537033L41.33316 36.93985" transform="matrix(1,0,0,1,0,0)"/><path style="fill: none; stroke-width: 0.595276; stroke-linecap: round; stroke-linejoin: round; stroke: rgb(0%,0%,0%); opacity: 1;stroke-miterlimit: 10;" d="M53.25 32.379211L40.781403 39.582977" transform="matrix(1,0,0,1,0,0)"/><path style="fill: none; stroke-width: 0.595276; stroke-linecap: round; stroke-linejoin: round; stroke: rgb(0%,0%,0%); opacity: 1;stroke-miterlimit: 10;" d="M28.31282 18L40.781403 10.796234" transform="matrix(1,0,0,1,0,0)"/><path style="fill: none; stroke-width: 0.595276; stroke-linecap: round; stroke-linejoin: round; stroke: rgb(0%,0%,0%); opacity: 1;stroke-miterlimit: 10;" d="M53.25 18L53.25 32.379211" transform="matrix(1,0,0,1,0,0)"/><path style="fill: none; stroke-width: 0.595276; stroke-linecap: butt; stroke-linejoin: round; stroke: rgb(0%,0%,0%); opacity: 1;stroke-miterlimit: 10;" d="M78.191528 18.003769L85.5 13.78569" transform="matrix(1,0,0,1,0,0)"/><path style="stroke: none; fill-rule: evenodd; fill: rgb(0%,0%,0%); opacity: 1;" d="M87.129425 14.25L87.129425 7.298309L88.073074 7.298309L91.724365 12.756287L91.724365 7.298309L92.606369 7.298309L92.606369 14.25L91.66272 14.25L88.011429 8.787277L88.011429 14.25ZM94.167358 14.25L94.167358 7.298309L95.087296 7.298309L95.087296 10.152954L98.700653 10.152954L98.700653 7.298309L99.62059 7.298309L99.62059 14.25L98.700653 14.25L98.700653 10.973312L95.087296 10.973312L95.087296 14.25ZM100.403015 14.25"/><path style="stroke: none; fill-rule: evenodd; fill: rgb(0%,0%,0%); opacity: 1;" d="M103.69725 17.395218L103.69725 18L100.309738 18C100.305069 17.848511 100.329529 17.70285 100.383148 17.563019C100.46936 17.332291 100.607452 17.105057 100.797409 16.881317C100.987335 16.657593 101.261765 16.398895 101.620697 16.105225C102.177689 15.648438 102.554077 15.286621 102.749863 15.01976C102.945618 14.752914 103.043503 14.500626 103.043518 14.262894C103.043503 14.013535 102.954361 13.803207 102.776077 13.631897C102.597794 13.460602 102.365311 13.374939 102.078659 13.374939C101.775665 13.374939 101.533279 13.465836 101.351501 13.647629C101.169708 13.829422 101.077652 14.081131 101.075333 14.402725L100.428589 14.336304C100.472855 13.853882 100.639496 13.486221 100.928497 13.233353C101.217499 12.980484 101.605545 12.85405 102.092636 12.85405C102.584381 12.85405 102.973587 12.990402 103.260254 13.263077C103.546921 13.535767 103.690247 13.873688 103.690262 14.276871C103.690247 14.481979 103.6483 14.683578 103.564407 14.881668C103.480499 15.079773 103.341248 15.288361 103.146637 15.507431C102.952026 15.726517 102.628662 16.027161 102.176544 16.409363C101.798981 16.726334 101.556595 16.941345 101.449387 17.054367C101.342178 17.167404 101.253616 17.281021 101.183701 17.395218ZM104.074799 18"/><path style="stroke: none; fill-rule: evenodd; fill: rgb(0%,0%,0%); opacity: 0;" d="M86.25 4.5L101.25 4.5L101.25 16.5L86.25 16.5ZM86.25 4.5"/><path style="fill: none; stroke-width: 0.75; stroke-linecap: butt; stroke-linejoin: miter; stroke: rgb(0%,0%,0%); opacity: 0;stroke-miterlimit: 10;" d="M86.25 4.5L101.25 4.5L101.25 16.5L86.25 16.5ZM86.25 4.5" transform="matrix(1,0,0,1,0,0)"/><path style="stroke: none; fill-rule: evenodd; fill: rgb(0%,0%,0%); opacity: 1;" d="M5.330017 14.25L5.330017 7.298309L6.249954 7.298309L6.249954 10.152954L9.863312 10.152954L9.863312 7.298309L10.783249 7.298309L10.783249 14.25L9.863312 14.25L9.863312 10.973312L6.249954 10.973312L6.249954 14.25ZM12.02179 10.864258C12.021774 9.710388 12.331573 8.807037 12.951202 8.154236C13.570801 7.501434 14.370621 7.175034 15.350632 7.175018C15.992371 7.175034 16.570877 7.328354 17.086182 7.634995C17.601456 7.941635 17.994247 8.369202 18.264557 8.917694C18.534836 9.466187 18.669983 10.088181 18.669998 10.783646C18.669983 11.488632 18.527725 12.119308 18.243225 12.675674C17.958694 13.232071 17.555634 13.653305 17.034027 13.939407C16.512405 14.225494 15.949692 14.36853 15.345886 14.368546C14.691483 14.36853 14.106644 14.21048 13.59137 13.894363C13.076065 13.578232 12.685638 13.146713 12.420105 12.599808C12.154541 12.052902 12.021774 11.474396 12.02179 10.864258ZM12.970184 10.878479C12.970169 11.716217 13.195404 12.376144 13.645905 12.858246C14.096375 13.340347 14.661469 13.58139 15.341156 13.58139C16.033478 13.58139 16.603287 13.337982 17.050613 12.851135C17.497925 12.364304 17.721588 11.673553 17.721603 10.7789C17.721588 10.213028 17.625961 9.71907 17.434708 9.297043C17.243439 8.875015 16.963669 8.547821 16.595383 8.31546C16.227097 8.083099 15.813751 7.966919 15.355377 7.966919C14.704132 7.966919 14.143799 8.190582 13.674362 8.637909C13.204895 9.085236 12.970169 9.832092 12.970184 10.878479ZM19.106247 14.25"/><path style="stroke: none; fill-rule: evenodd; fill: rgb(0%,0%,0%); opacity: 0;" d="M4.5 4.5L20.25 4.5L20.25 16.5L4.5 16.5ZM4.5 4.5"/><path style="fill: none; stroke-width: 0.75; stroke-linecap: butt; stroke-linejoin: miter; stroke: rgb(0%,0%,0%); opacity: 0;stroke-miterlimit: 10;" d="M4.5 4.5L20.25 4.5L20.25 16.5L4.5 16.5ZM4.5 4.5" transform="matrix(1,0,0,1,0,0)"/><path style="stroke: none; fill-rule: evenodd; fill: rgb(0%,0%,0%); opacity: 1;" d="M5.330017 43.5L5.330017 36.548309L6.249954 36.548309L6.249954 39.402954L9.863312 39.402954L9.863312 36.548309L10.783249 36.548309L10.783249 43.5L9.863312 43.5L9.863312 40.223312L6.249954 40.223312L6.249954 43.5ZM12.02179 40.114258C12.021774 38.960388 12.331573 38.057037 12.951202 37.404236C13.570801 36.751434 14.370621 36.425034 15.350632 36.425018C15.992371 36.425034 16.570877 36.578354 17.086182 36.884995C17.601456 37.191635 17.994247 37.619202 18.264557 38.167694C18.534836 38.716187 18.669983 39.338181 18.669998 40.033646C18.669983 40.738632 18.527725 41.369308 18.243225 41.925674C17.958694 42.482071 17.555634 42.903305 17.034027 43.189407C16.512405 43.475494 15.949692 43.61853 15.345886 43.618546C14.691483 43.61853 14.106644 43.46048 13.59137 43.144363C13.076065 42.828232 12.685638 42.396713 12.420105 41.849808C12.154541 41.302902 12.021774 40.724396 12.02179 40.114258ZM12.970184 40.128479C12.970169 40.966217 13.195404 41.626144 13.645905 42.108246C14.096375 42.590347 14.661469 42.83139 15.341156 42.83139C16.033478 42.83139 16.603287 42.587982 17.050613 42.101135C17.497925 41.614304 17.721588 40.923553 17.721603 40.0289C17.721588 39.463028 17.625961 38.96907 17.434708 38.547043C17.243439 38.125015 16.963669 37.797821 16.595383 37.56546C16.227097 37.333099 15.813751 37.216919 15.355377 37.216919C14.704132 37.216919 14.143799 37.440582 13.674362 37.887909C13.204895 38.335236 12.970169 39.082092 12.970184 40.128479ZM19.106247 43.5"/><path style="stroke: none; fill-rule: evenodd; fill: rgb(0%,0%,0%); opacity: 0;" d="M4.5 33.75L20.25 33.75L20.25 45.75L4.5 45.75ZM4.5 33.75"/><path style="fill: none; stroke-width: 0.75; stroke-linecap: butt; stroke-linejoin: miter; stroke: rgb(0%,0%,0%); opacity: 0;stroke-miterlimit: 10;" d="M4.5 33.75L20.25 33.75L20.25 45.75L4.5 45.75ZM4.5 33.75" transform="matrix(1,0,0,1,0,0)"/></g></svg>